<svg width="86" height="75" viewBox="0 0 86 75" fill="none" xmlns="http://www.w3.org/2000/svg">
<path d="M77.9295 29.9817H70.1198V37.4955H77.9295V29.9817Z" fill="#FFD862"/>
<path d="M77.9111 52.4945H70.1013H62.3289H54.5191V60.0083V67.4863H46.7466H38.9369H31.1644V60.0083H38.9369H46.7466V52.4945V44.9807H38.9369V52.4945H31.1644H23.3547H15.5822H7.77249V44.9807H0V52.4945V60.0083H7.77249V67.4863H15.5822V75.0001H23.3547H31.1644H38.9369H46.7466H54.5191H62.3289H70.1013V67.4863H77.9111V60.0083H85.6836V52.4945V44.9807H77.9111V52.4945Z" fill="#FFD862"/>
<path d="M38.9483 29.9817H31.1386V37.4955H38.9483V29.9817Z" fill="#FFD862"/>
<path d="M70.1136 7.51371V0H62.3411H54.5314H46.7589H38.9491H31.1767H23.3669H15.5944V7.51371H7.78473V22.5055H15.5944H23.3669H31.1767H38.9491H46.7589H54.5314H62.3411H70.1136H77.9233V7.51371H70.1136Z" fill="#FFD862"/>
<path d="M85.7142 14.9885H77.9046V22.5023H85.7142V14.9885Z" fill="#FFD862"/>
<path d="M7.80972 14.9885H0V22.5023H7.80972V14.9885Z" fill="#FFD862"/>
</svg>
